<svg width="22" height="22" viewBox="0 0 22 22" fill="none" xmlns="http://www.w3.org/2000/svg">
<g clip-path="url(#clip0_498_173)">
<path d="M19.0667 1.17322H2.9333C1.31325 1.17322 0 2.51148 0 4.16229V14.9979C0 16.6489 1.31325 17.9871 2.9333 17.9871H3.27924L4.67645 20.4531C4.80742 20.6844 5.04955 20.8268 5.31153 20.8268C5.57351 20.8268 5.81559 20.6844 5.94661 20.4531L7.34382 17.9871H19.0667C20.6867 17.9871 22 16.6488 22 14.9979V4.16229C22 2.51148 20.6867 1.17322 19.0667 1.17322Z" fill="#FCB63E"/>
<g opacity="0.2">
<path opacity="0.2" d="M19.0669 1.17322H17.6543C19.2743 1.17322 20.5876 2.51148 20.5876 4.16229V14.9979C20.5876 16.6489 19.2743 17.9871 17.6543 17.9871H19.0669C20.687 17.9871 22.0002 16.6488 22.0002 14.9979V4.16229C22.0002 2.51148 20.687 1.17322 19.0669 1.17322Z" fill="white"/>
</g>
<path opacity="0.1" d="M1.41264 14.9979V4.16229C1.41264 2.51148 2.72589 1.17322 4.34589 1.17322H2.9333C1.31325 1.17322 0 2.51148 0 4.16229V14.9979C0 16.6489 1.31325 17.9871 2.9333 17.9871H3.27924C3.27924 17.9871 1.41264 16.6488 1.41264 14.9979Z" fill="black"/>
<path d="M7.04039 10.0575C7.04039 10.7857 6.44935 11.376 5.72039 11.376C4.99138 11.376 4.40039 10.7857 4.40039 10.0575C4.40039 9.32928 4.99138 8.73889 5.72039 8.73889C6.44935 8.73889 7.04039 9.32928 7.04039 10.0575Z" fill="white"/>
<path d="M12.3207 10.0575C12.3207 10.7857 11.7297 11.376 11.0007 11.376C10.2717 11.376 9.68066 10.7857 9.68066 10.0575C9.68066 9.32928 10.2717 8.73889 11.0007 8.73889C11.7297 8.73889 12.3207 9.32928 12.3207 10.0575Z" fill="white"/>
<path d="M17.5999 10.0575C17.5999 10.7857 17.0089 11.376 16.2799 11.376C15.551 11.376 14.96 10.7857 14.96 10.0575C14.96 9.32928 15.551 8.73889 16.2799 8.73889C17.0089 8.73889 17.5999 9.32928 17.5999 10.0575Z" fill="white"/>
</g>
<defs>
<clipPath id="clip0_498_173">
<rect width="22" height="22" fill="white"/>
</clipPath>
</defs>
</svg>
