<svg xmlns="http://www.w3.org/2000/svg" width="102" height="30" viewBox="0 0 102 30" fill="none"><path d="M18.8864 11.1818H30V27.6682C30 28.95 28.9636 30 27.6682 30H2.33182C1.03636 30 0 28.9636 0 27.6682V2.33182C0 1.03636 1.03636 0 2.33182 0H18.8864V11.1818Z" fill="#2579FF"></path><path d="M30.0004 10.9773V11.1818H18.8867V0H19.0231L30.0004 10.9773Z" fill="#66D5CD"></path><path d="M20.9313 17.1137H4.56765C4.00856 17.1137 3.54492 16.6501 3.54492 16.091C3.54492 15.5319 4.00856 15.0682 4.56765 15.0682H20.9313C21.4904 15.0682 21.954 15.5319 21.954 16.091C21.954 16.6501 21.4904 17.1137 20.9313 17.1137Z" fill="#0747AC"></path><path d="M14.7949 21.2727H4.56765C4.00856 21.2727 3.54492 20.8091 3.54492 20.25C3.54492 19.6909 4.00856 19.2273 4.56765 19.2273H14.7949C15.354 19.2273 15.8176 19.6909 15.8176 20.25C15.8176 20.8091 15.354 21.2727 14.7949 21.2727Z" fill="#0747AC"></path><path d="M20.9313 25.4318H4.56765C4.00856 25.4318 3.54492 24.9682 3.54492 24.4091C3.54492 23.85 4.00856 23.3864 4.56765 23.3864H20.9313C21.4904 23.3864 21.954 23.85 21.954 24.4091C21.954 24.9682 21.4904 25.4318 20.9313 25.4318Z" fill="#0747AC"></path><path d="M30.0005 12.8181L18.9551 11.1818H30.0005V12.8181Z" fill="#2367D3"></path><path d="M45.0211 27.42C43.6305 27.42 42.4171 27.07 41.3811 26.37C40.3451 25.67 39.5425 24.718 38.9731 23.514C38.4038 22.31 38.1191 20.952 38.1191 19.44C38.1191 17.9093 38.4038 16.5466 38.9731 15.352C39.5518 14.148 40.3685 13.2006 41.4231 12.51C42.4778 11.81 43.7191 11.46 45.1471 11.46C46.5845 11.46 47.7885 11.81 48.7591 12.51C49.7391 13.2006 50.4811 14.148 50.9851 15.352C51.4891 16.556 51.7411 17.9186 51.7411 19.44C51.7411 20.9426 51.4891 22.3006 50.9851 23.514C50.4811 24.718 49.7298 25.67 48.7311 26.37C47.7325 27.07 46.4958 27.42 45.0211 27.42ZM45.5391 24.396C46.4445 24.396 47.1725 24.1906 47.7231 23.78C48.2831 23.36 48.6891 22.7766 48.9411 22.03C49.2025 21.2833 49.3331 20.42 49.3331 19.44C49.3331 18.4506 49.2025 17.5873 48.9411 16.85C48.6891 16.1033 48.2925 15.5246 47.7511 15.114C47.2098 14.694 46.5098 14.484 45.6511 14.484C44.7458 14.484 43.9991 14.708 43.4111 15.156C42.8231 15.5946 42.3891 16.192 42.1091 16.948C41.8291 17.6946 41.6891 18.5253 41.6891 19.44C41.6891 20.364 41.8245 21.204 42.0951 21.96C42.3751 22.7066 42.7998 23.2993 43.3691 23.738C43.9385 24.1766 44.6618 24.396 45.5391 24.396ZM49.3331 27V16.388H48.9131V6.83997H52.3151V27H49.3331Z" fill="#12174E"></path><path d="M61.3024 27.42C59.9117 27.42 58.6984 27.07 57.6624 26.37C56.6264 25.67 55.8237 24.718 55.2544 23.514C54.6851 22.31 54.4004 20.952 54.4004 19.44C54.4004 17.9093 54.6851 16.5466 55.2544 15.352C55.8331 14.148 56.6497 13.2006 57.7044 12.51C58.7591 11.81 60.0004 11.46 61.4284 11.46C62.8657 11.46 64.0697 11.81 65.0404 12.51C66.0204 13.2006 66.7624 14.148 67.2664 15.352C67.7704 16.556 68.0224 17.9186 68.0224 19.44C68.0224 20.9426 67.7704 22.3006 67.2664 23.514C66.7624 24.718 66.0111 25.67 65.0124 26.37C64.0137 27.07 62.7771 27.42 61.3024 27.42ZM61.8204 24.396C62.7257 24.396 63.4537 24.1906 64.0044 23.78C64.5644 23.36 64.9704 22.7766 65.2224 22.03C65.4837 21.2833 65.6144 20.42 65.6144 19.44C65.6144 18.4506 65.4837 17.5873 65.2224 16.85C64.9704 16.1033 64.5737 15.5246 64.0324 15.114C63.4911 14.694 62.7911 14.484 61.9324 14.484C61.0271 14.484 60.2804 14.708 59.6924 15.156C59.1044 15.5946 58.6704 16.192 58.3904 16.948C58.1104 17.6946 57.9704 18.5253 57.9704 19.44C57.9704 20.364 58.1057 21.204 58.3764 21.96C58.6564 22.7066 59.0811 23.2993 59.6504 23.738C60.2197 24.1766 60.9431 24.396 61.8204 24.396ZM65.6144 27V16.388H65.1944V6.83997H68.5964V27H65.6144Z" fill="#12174E"></path><path d="M78.1996 27.42C76.6876 27.42 75.367 27.0793 74.2376 26.398C73.1083 25.7166 72.231 24.7786 71.6056 23.584C70.9896 22.38 70.6816 20.9986 70.6816 19.44C70.6816 17.8533 70.999 16.4626 71.6336 15.268C72.2683 14.0733 73.1503 13.14 74.2796 12.468C75.409 11.796 76.7156 11.46 78.1996 11.46C79.721 11.46 81.0463 11.8006 82.1756 12.482C83.305 13.1633 84.1823 14.106 84.8076 15.31C85.433 16.5046 85.7456 17.8813 85.7456 19.44C85.7456 21.008 85.4283 22.394 84.7936 23.598C84.1683 24.7926 83.291 25.7306 82.1616 26.412C81.0323 27.084 79.7116 27.42 78.1996 27.42ZM78.1996 24.256C79.5436 24.256 80.5423 23.808 81.1956 22.912C81.849 22.016 82.1756 20.8586 82.1756 19.44C82.1756 17.9746 81.8443 16.808 81.1816 15.94C80.519 15.0626 79.525 14.624 78.1996 14.624C77.2943 14.624 76.5476 14.8293 75.9596 15.24C75.381 15.6413 74.9516 16.206 74.6716 16.934C74.3916 17.6526 74.2516 18.488 74.2516 19.44C74.2516 20.9053 74.583 22.0766 75.2456 22.954C75.9176 23.822 76.9023 24.256 78.1996 24.256Z" fill="#12174E"></path><path d="M94.3962 27.42C92.8376 27.42 91.5076 27.0746 90.4062 26.384C89.3049 25.684 88.4602 24.732 87.8722 23.528C87.2936 22.324 86.9996 20.9613 86.9902 19.44C86.9996 17.8906 87.3029 16.5186 87.9002 15.324C88.5069 14.12 89.3656 13.1773 90.4762 12.496C91.5869 11.8053 92.9076 11.46 94.4382 11.46C96.1556 11.46 97.6069 11.894 98.7922 12.762C99.9869 13.6206 100.766 14.7966 101.13 16.29L97.7702 17.2C97.5089 16.388 97.0749 15.758 96.4682 15.31C95.8616 14.8526 95.1709 14.624 94.3962 14.624C93.5189 14.624 92.7956 14.834 92.2262 15.254C91.6569 15.6646 91.2369 16.234 90.9662 16.962C90.6956 17.69 90.5602 18.516 90.5602 19.44C90.5602 20.8773 90.8822 22.0393 91.5262 22.926C92.1702 23.8126 93.1269 24.256 94.3962 24.256C95.2922 24.256 95.9969 24.0506 96.5102 23.64C97.0329 23.2293 97.4249 22.6366 97.6862 21.862L101.13 22.632C100.664 24.172 99.8469 25.3573 98.6802 26.188C97.5136 27.0093 96.0856 27.42 94.3962 27.42Z" fill="#12174E"></path></svg>