<svg xmlns="http://www.w3.org/2000/svg" viewBox="0 0 117.53 117.53"><defs><style>.cls-1{fill:#0f2958;}.cls-2{fill:#fff;}</style></defs><g id="Capa_2" data-name="Capa 2"><g id="Capa_1-2" data-name="Capa 1"><circle class="cls-1" cx="58.76" cy="58.76" r="58.76"/><path class="cls-2" d="M62.6,82.45H60.66a.62.62,0,0,0-.62.62.63.63,0,0,0,.62.63H62.6a.63.63,0,0,0,0-1.25Z"/><path class="cls-2" d="M74.52,76H72.59a.64.64,0,0,0-.63.62.65.65,0,0,0,.63.63h1.93a.63.63,0,1,0,0-1.25Z"/><path class="cls-2" d="M85.94,72.86V51.74a5.89,5.89,0,0,0-.23-2.33c-.74-1.76-2.48-1.75-4.09-1.73,0-1.68,0-3.35,0-5a4.63,4.63,0,0,0-4.54-4.78c-2.25-.09-4.53,0-6.78,0H41.5c-2.4,0-4.82-.08-7.22,0a4.61,4.61,0,0,0-4.57,4.53c0,1,0,2.07,0,3.1V65.78c0,1.47,0,2.87.92,4.12,1.14,1.51,2.78,1.81,4.53,1.81h11.5l-2.33,3.12c-.14.19-.27.38-.41.56a.84.84,0,0,0-.06.14H40.62a.63.63,0,0,0,0,1.25H54.49v6a3.61,3.61,0,0,0,.78,2.66,3.92,3.92,0,0,0,3.18,1h7.33a3.05,3.05,0,0,0,3-3c0-.54,0-1.09,0-1.63V80h13.1c1.22,0,2.44.08,3.35-.93C86.48,77.64,85.94,74.58,85.94,72.86Zm-51.52-2.4C30.24,70.4,31,65.82,31,63V43.74c0-1.59,0-3.18,1.58-4.14a5.24,5.24,0,0,1,2.87-.47H76a5.1,5.1,0,0,1,2.83.47c2.14,1.3,1.58,4.36,1.58,6.48v1.6c-5.4,0-10.82-.17-16.21,0-3.8.12-3,4.6-3,7.19v9.54c-1.19,0-2.37,0-3.55,0a3.08,3.08,0,0,0-3,2,5.72,5.72,0,0,0-.16,1.89v2.12C47.8,70.47,41.11,70.55,34.42,70.46Zm10.94,5.07L48,72l.24-.32h6.28v3.82Zm20.42,9.65H60.13c-1.65,0-4.31.48-4.39-1.88-.16-4.18,0-8.39,0-12.57V68.19A3,3,0,0,1,56,66.46c.59-.91,1.63-.79,2.57-.79H65.3c1.14,0,2.12.45,2.22,1.75s0,2.82,0,4.21v8.31C67.52,81.55,68.16,85,65.78,85.18ZM84.69,77c-.07,1.48-1.16,1.75-2.36,1.75H68.77V74c0-2.1,0-4.2,0-6.3A3.16,3.16,0,0,0,67.58,65a4.35,4.35,0,0,0-2.84-.61H62.43V52.24c0-1.11-.29-2.81,1.1-3.24A8.8,8.8,0,0,1,66,48.93H80.36c.87,0,1.75,0,2.62,0,1.45.08,1.71,1.12,1.71,2.26v19C84.69,72.44,84.8,74.72,84.69,77Z"/></g></g></svg>