<svg xmlns="http://www.w3.org/2000/svg" viewBox="0 0 117.53 117.53"><defs><style>.cls-1{fill:#0f2958;}.cls-2{fill:#fff;}</style></defs><g id="Capa_2" data-name="Capa 2"><g id="Capa_1-2" data-name="Capa 1"><circle class="cls-1" cx="58.76" cy="58.76" r="58.76"/><path class="cls-2" d="M61.68,61.39a2.53,2.53,0,0,0-2-.83c-3.88-.06-7.76,0-11.63,0-1.37,0-2.76-.05-4.13,0a2.39,2.39,0,0,0-2.28,1.66,9.51,9.51,0,0,0-.09,2.5,10.07,10.07,0,0,0,.09,2.69,2.36,2.36,0,0,0,2.26,1.66c1.35.06,2.71,0,4.06,0h12c2.75-.2,2.31-3.1,2.31-5.07A3.71,3.71,0,0,0,61.68,61.39Zm-1.76,6.43h-14c-1,0-2.9.37-3.08-1.06a15.43,15.43,0,0,1,0-2,7.88,7.88,0,0,1,0-2.17c.35-1.07,2.25-.74,3.1-.74h11.4c1,0,3.35-.43,3.61.9a12.84,12.84,0,0,1,0,2.48C61,66.13,61.27,67.72,59.92,67.82Z"/><path class="cls-2" d="M90.67,65.64V56.45a2.93,2.93,0,0,0-2-3.09,7,7,0,0,0-2-.11,47.07,47.07,0,0,0-.06-6.72,4.8,4.8,0,0,0-.89-2.16l0,0a4.72,4.72,0,0,0-.41-.48,1.34,1.34,0,0,0-.21-.2,1.93,1.93,0,0,0-.3-.27,2.28,2.28,0,0,0-.3-.21l-.32-.2a2.85,2.85,0,0,0-.3-.16l-.4-.17a1,1,0,0,0-.16-.06l-.16,0L83,42.49l-.2,0-.09,0a11,11,0,0,0-1.82-.09H58.57V40.47a2.91,2.91,0,0,0-2-3.08,7.86,7.86,0,0,0-2.22-.12H44.85c-2.49,0-5-.08-7.48,0A2.8,2.8,0,0,0,34.52,40c0,.81,0,1.63,0,2.44l-.15,0-.45.12-.37.12-.35.14a4.73,4.73,0,0,0-2.4,2.44,4.93,4.93,0,0,0-.28.9,5.59,5.59,0,0,0-.08.59l0,.25c0,.08,0,.15,0,.22V69.56c0,1.53-.05,3.07,0,4.6A5,5,0,0,0,35.68,79c4.4,0,8.79,0,13.19,0l-2.59,3.48-.46.61a.49.49,0,0,0-.06.17H42.19a.63.63,0,0,0,0,1.25H74.92a.63.63,0,0,0,0-1.25H71.35a.36.36,0,0,0-.07-.17c-1-1.37-2-2.73-3-4.09h9.85A27.41,27.41,0,0,0,82.71,79,4.9,4.9,0,0,0,86.64,75a14.11,14.11,0,0,0,.09-2.91H88C91.35,71.86,90.67,68,90.67,65.64ZM55.85,54.88H54.13A.63.63,0,0,0,54,54.7L48.36,49,51.76,46l5.56,5.38v.26C57.32,52.91,57.61,54.75,55.85,54.88ZM35.75,48,41,43.25,51.56,54l.87.89H38c-1,0-2.09-.14-2.19-1.5A53.4,53.4,0,0,1,35.75,48Zm0-8c.14-1.39,1.26-1.48,2.33-1.48H54.53a4.72,4.72,0,0,1,1.95.16c1.13.55.84,2.17.84,3.21v7.79l-5.09-4.93a.66.66,0,0,0-.89,0l-3.86,3.32L43,43.54l-1.57-1.6a.64.64,0,0,0-.88,0l-4.81,4.37c0-1,0-2-.08-3.08a.73.73,0,0,0,.07-.29.64.64,0,0,0-.07-.27A23.58,23.58,0,0,1,35.77,40Zm34,43.14.12.15H47.24l2.9-3.88.28-.38H66.69Zm15.72-9a3.69,3.69,0,0,1-3.63,3.63c-1.42.06-2.86,0-4.28,0H37.93c-1.45,0-3.32.26-4.59-.55-2-1.25-1.7-3.48-1.7-5.48V49.85c0-.5,0-1,0-1.59a5.63,5.63,0,0,1,1.15-3.63.12.12,0,0,1,0-.05.93.93,0,0,1,.15-.13,3.5,3.5,0,0,1,1.11-.63l.18-.06.25-.06h0v8.56a4,4,0,0,0,.7,3,3.35,3.35,0,0,0,2.78.91H55.85c3.39-.25,2.72-4.09,2.72-6.47V43.6h21c1.51,0,3.17-.08,4.37.68A3.24,3.24,0,0,1,85,45.44c.71,1.25.47,3,.47,4.37v3.44H77c-2.48,0-5-.08-7.48,0A2.81,2.81,0,0,0,66.62,56c0,.86,0,1.72,0,2.58v9.68a4,4,0,0,0,.7,3,3.38,3.38,0,0,0,2.79.91H85.48C85.49,72.79,85.5,73.47,85.47,74.15ZM88,70.86H70.06c-1,0-2.09-.15-2.19-1.5-.17-2.27,0-4.63,0-6.91a63.47,63.47,0,0,1,0-6.47c.15-1.39,1.26-1.48,2.34-1.48H86.63a4.72,4.72,0,0,1,2,.16c1.13.55.84,2.17.84,3.21v9.79C89.42,68.89,89.72,70.73,88,70.86Z"/><path class="cls-2" d="M76.24,59l-.89-.46-.08,0h0a.67.67,0,0,0-.42,0,.57.57,0,0,0-.4.48l0,.06v7.26a.63.63,0,0,0,.94.54l6.32-3,.91-.44a.64.64,0,0,0,0-1.08Zm-.58,1.1,5.21,2.7L75.66,65.3Z"/></g></g></svg>