<svg xmlns="http://www.w3.org/2000/svg" viewBox="0 0 117.53 117.53"><defs><style>.cls-1{fill:#0f2958;}.cls-2{fill:#fff;fill-rule:evenodd;}</style></defs><g id="Capa_2" data-name="Capa 2"><g id="Capa_1-2" data-name="Capa 1"><circle class="cls-1" cx="58.76" cy="58.76" r="58.76"/><path class="cls-2" d="M59.07,33.35A25.72,25.72,0,1,0,84.78,59.07,25.73,25.73,0,0,0,59.07,33.35Zm0,2.24A23.48,23.48,0,1,1,35.59,59.07,23.5,23.5,0,0,1,59.07,35.59Z"/><path class="cls-2" d="M69.87,61.86a3.34,3.34,0,0,0,0-5.58l-13.42-9a3.36,3.36,0,0,0-5.21,2.8V68a3.36,3.36,0,0,0,5.21,2.8l13.42-9ZM68.63,60,55.21,69a1.11,1.11,0,0,1-1.14,0,1.1,1.1,0,0,1-.59-1V50.13a1.11,1.11,0,0,1,1.73-.93l13.42,8.94a1.11,1.11,0,0,1,0,1.86Z"/></g></g></svg>