<svg xmlns="http://www.w3.org/2000/svg" viewBox="0 0 117.53 117.53"><defs><style>.cls-1{fill:#0f2958;}.cls-2{fill:#fff;}</style></defs><g id="Capa_2" data-name="Capa 2"><g id="Capa_1-2" data-name="Capa 1"><circle class="cls-1" cx="58.76" cy="58.76" r="58.76"/><path class="cls-2" d="M84.28,50.73c-.2-3.68-4.4-3-7-3h-11V41.83c0-1.9.44-5.06-2.22-5.29-1.22-.11-2.5,0-3.72,0H43.88c-1.28,0-2.62-.11-3.9,0-1.79.15-2.22,1.76-2.22,3.26v41c0,1.38.12,3.08,1.76,3.48a16.73,16.73,0,0,0,3.81.06h8c4.24,0,8.54.23,12.77,0,2.37-.13,2.27-2.59,2.27-4.33V70.26h15c2.06-.14,3-1.69,3-3.58V61.34C84.28,57.82,84.47,54.24,84.28,50.73Zm-31.9,3.06V53H83v3.4H52.38ZM81.07,49c1.47.06,2,1.1,2,2.38v.36H52.34c0-.34,0-.68,0-1C52.54,49,53.93,49,55.22,49h4.31c2,0,4.07,0,6.11,0h.13C70.88,48.9,76,48.82,81.07,49Zm-16,32.71c-.12,1.85-1.86,1.42-3.16,1.42h-21a5.24,5.24,0,0,1-1,0c-.85-.18-.94-1-1-1.68,0-1.1,0-2.21,0-3.31V48.28c0-3-.14-6,0-9,.07-1.64,1.07-1.53,2.27-1.53H62.35c1.39,0,2.65-.27,2.73,1.64.08,2.33,0,4.67,0,7v1.32h-1.3c-3.18,0-6.36-.09-9.53,0-3.91.12-3.12,4.64-3.12,7.31,0,4-.06,7.95,0,11.93a3.08,3.08,0,0,0,3,3.27c.92,0,1.84,0,2.76,0h8.19C65.08,74.06,65.32,77.93,65.08,81.71ZM83,67a1.82,1.82,0,0,1-1.72,2H61.45c-2.4,0-4.93.22-7.33,0-1.88-.17-1.74-1.82-1.74-3.21V57.64H83C83.06,60.77,83.13,63.9,83,67Z"/><path class="cls-2" d="M79,60.7a3.05,3.05,0,0,0-2.82.39,3.16,3.16,0,0,0-2.39-.51,3.08,3.08,0,0,0-2.06,1.52,3.07,3.07,0,0,0,4.46,4,3.16,3.16,0,0,0,2.36.51A3.07,3.07,0,0,0,79,60.7Zm-4.5,4.71h-.33l-.08,0a1.78,1.78,0,0,1-1.26-.91.89.89,0,0,1-.15-.36,1.8,1.8,0,0,1-.06-.22v0s0-.11,0-.12a1.7,1.7,0,0,1,.14-.86.83.83,0,0,0,.07-.13l.12-.19,0,0,.05-.06.18-.19A1,1,0,0,1,73.5,62l.2-.11,0,0,.14,0a1.85,1.85,0,0,1,1.49.15,3.07,3.07,0,0,0,0,3.15h0a1.34,1.34,0,0,1-.37.16A1.86,1.86,0,0,1,74.54,65.41Zm4.1-.12a1.83,1.83,0,0,1-.55.12h-.4l-.19,0a1.74,1.74,0,0,1-1-.62l0,0a1.4,1.4,0,0,1-.1-.16.75.75,0,0,1-.07-.12.89.89,0,0,1,0-.1,1.61,1.61,0,0,1-.09-.29l0-.13a.18.18,0,0,1,0-.06s0,0,0-.07a2.15,2.15,0,0,1,0-.54c0-.11.06-.21.1-.32a1,1,0,0,1,.13-.25,1.5,1.5,0,0,1,.34-.42,1.8,1.8,0,0,1,.51-.33h0l.19-.06.12,0,.12,0h.56a1.87,1.87,0,0,1,1.09.63l0,0,0,0,.11.16.09.17,0,0,0,0a2.72,2.72,0,0,1,.11.38v0a2.28,2.28,0,0,1,0,.26A1.84,1.84,0,0,1,78.64,65.29Z"/><path class="cls-2" d="M65.27,61.55H55a.63.63,0,0,0,0,1.25h10.3A.63.63,0,0,0,65.27,61.55Z"/><path class="cls-2" d="M65.27,65.41H55a.63.63,0,0,0,0,1.25h10.3A.63.63,0,0,0,65.27,65.41Z"/><path class="cls-2" d="M54,78.55H48.76a.63.63,0,0,0,0,1.25H54A.63.63,0,0,0,54,78.55Z"/></g></g></svg>