<svg xmlns="http://www.w3.org/2000/svg" viewBox="0 0 117.53 117.53"><defs><style>.cls-1{fill:#0f2958;}.cls-2{fill:#fff;}</style></defs><g id="Capa_2" data-name="Capa 2"><g id="Capa_1-2" data-name="Capa 1"><circle class="cls-1" cx="58.76" cy="58.76" r="58.76"/><path class="cls-2" d="M87.3,56.64H84a.95.95,0,1,0,0,1.89h3.3a.95.95,0,0,0,0-1.89Z"/><path class="cls-2" d="M82.7,52.84a.94.94,0,0,0,.67-.28l2.35-2.36a.94.94,0,1,0-1.33-1.33L82,51.23a.95.95,0,0,0,.67,1.61Z"/><path class="cls-2" d="M83.37,62.6A.95.95,0,1,0,82,63.94l2.36,2.35a.92.92,0,0,0,.67.28.9.9,0,0,0,.66-.28.94.94,0,0,0,0-1.33Z"/><path class="cls-2" d="M75.34,47.37v-8a3.91,3.91,0,0,0-3.9-3.9h-2A3.9,3.9,0,0,0,66,37.57a1,1,0,0,0-.33.35,20.81,20.81,0,0,1-2.31,3.5,11,11,0,0,0-21.8,2.29,11.16,11.16,0,0,0,.55,3.44h-3A3.89,3.89,0,0,0,35.3,50.6h-.09a7,7,0,1,0,0,14h.09A3.89,3.89,0,0,0,39.16,68h.52v1.23a2.58,2.58,0,0,0,1.8,2.45v9.56a3.91,3.91,0,0,0,3.9,3.9h1a3.91,3.91,0,0,0,3.9-3.9V71.69a2.58,2.58,0,0,0,1.8-2.45V68.1a15.9,15.9,0,0,1,6.77,2.26,22.7,22.7,0,0,1,6.9,7,.94.94,0,0,0,.29.27,3.89,3.89,0,0,0,3.45,2.12h2a3.91,3.91,0,0,0,3.9-3.9v-8a11.65,11.65,0,0,0,0-20.42ZM30.12,57.58a5.09,5.09,0,0,1,5.09-5.09h0V62.68h0A5.1,5.1,0,0,1,30.12,57.58Zm22.47-23a9.14,9.14,0,1,1-9.14,9.14A9.15,9.15,0,0,1,52.59,34.57ZM51.94,54.7V66.19c-.39,0-.78,0-1.18-.06H41.68V49H43A11,11,0,0,0,51.94,54.7Zm-14.8,9.41V51.05a2,2,0,0,1,2-2h.64V66.13h-.64A2,2,0,0,1,37.14,64.11Zm13,5.13a.7.7,0,0,1-.7.7h-7.2a.7.7,0,0,1-.7-.7V68.06h8.6Zm-3.81,14h-1a2,2,0,0,1-2-2V71.83h5v9.42A2,2,0,0,1,46.36,83.27Zm19.21-9.35c-3.34-4.13-7.27-6.63-11.74-7.47V54.66A11,11,0,0,0,63.6,44a19.45,19.45,0,0,0,2-2.31Zm7.88,1.9a2,2,0,0,1-2,2h-2a2,2,0,0,1-2-2V39.33a2,2,0,0,1,2-2h2a2,2,0,0,1,2,2Zm1.89-10.25v-16a9.76,9.76,0,0,1,0,16Z"/><path class="cls-2" d="M49.26,43.21a2.82,2.82,0,0,0,2-.83h0a2.82,2.82,0,1,0-2,.83Zm-.67-3.49a.94.94,0,1,1,0,1.33,1,1,0,0,1-.27-.67A.94.94,0,0,1,48.59,39.72Z"/><path class="cls-2" d="M53.92,45a2.83,2.83,0,1,0,4,4,2.82,2.82,0,0,0,0-4h0A2.84,2.84,0,0,0,53.92,45Zm2.67,2.67a1,1,0,0,1-1.34,0,.95.95,0,0,1,1.34-1.34,1,1,0,0,1,0,1.34Z"/><path class="cls-2" d="M47.8,48.5a.9.9,0,0,0,.66.28.92.92,0,0,0,.67-.28l8.25-8.25a.94.94,0,1,0-1.33-1.33L47.8,47.17A.94.94,0,0,0,47.8,48.5Z"/></g></g></svg>