<svg xmlns="http://www.w3.org/2000/svg" viewBox="0 0 53.62 53.62"><defs><style>.cls-1{fill:#ecb72f;}.cls-2{fill:#fff;}</style></defs><g id="Capa_2" data-name="Capa 2"><g id="Capa_1-2" data-name="Capa 1"><path class="cls-1" d="M53.62,26.81A26.81,26.81,0,1,1,26.81,0,26.81,26.81,0,0,1,53.62,26.81"/><path class="cls-2" d="M40.09,18.19V34.67a3.53,3.53,0,0,1-.46,1,2.67,2.67,0,0,1-1.4.9H15.42l-.15-.06A2.33,2.33,0,0,1,13.53,34V18.71a2.29,2.29,0,0,1,.23-1.07A2.35,2.35,0,0,1,16,16.3H37.86a2.31,2.31,0,0,1,1.36.5,2.66,2.66,0,0,1,.87,1.38m-23.78-.27c.08.08.12.14.18.19L26.66,28.2c.18.18.28.14.43,0L37.17,18.11c0-.05.13-.09.12-.19Zm21,17-.13-.16q-3.52-3.51-7-7c-.16-.16-.25-.13-.4,0-.73.74-1.47,1.48-2.22,2.21a.83.83,0,0,1-1.38,0c-.76-.75-1.53-1.5-2.28-2.26-.15-.14-.24-.16-.4,0l-7,7c0,.05-.14.08-.12.19Zm-22.2-1.21c.11,0,.16-.1.21-.15q3.49-3.5,7-7c.18-.19.16-.28,0-.45l-7-6.91c-.06-.05-.1-.14-.21-.14ZM38.51,19.12c-.11,0-.14.07-.19.12l-7,7c-.17.17-.14.26,0,.41l7,7s.09.14.2.12Z"/></g></g></svg>