<svg xmlns="http://www.w3.org/2000/svg" viewBox="0 0 53.62 53.62"><defs><style>.cls-1{fill:#dd7e49;}.cls-2{fill:#fff;}</style></defs><g id="Capa_2" data-name="Capa 2"><g id="Capa_1-2" data-name="Capa 1"><path class="cls-1" d="M53.62,26.81A26.81,26.81,0,1,1,26.81,0,26.81,26.81,0,0,1,53.62,26.81"/><path class="cls-2" d="M31.56,41.36a14.08,14.08,0,0,1-2.85-.68,26,26,0,0,1-7.41-4.29A28.47,28.47,0,0,1,13.71,27a15.26,15.26,0,0,1-1.6-4.77,5.21,5.21,0,0,1,.68-3.81c.09-.12.18-.26.28-.37a36.12,36.12,0,0,1,2.64-2.61,2.64,2.64,0,0,1,3.48,0c.84.73,1.6,1.56,2.39,2.35.48.48,1,.94,1.41,1.46a2.64,2.64,0,0,1,0,3.52c-.6.7-1.27,1.32-1.93,2a.36.36,0,0,0-.08.48,13.61,13.61,0,0,0,2,2.88,20.3,20.3,0,0,0,4.09,3.65c.33.22.69.38,1,.58a.32.32,0,0,0,.45-.08c.66-.64,1.28-1.31,2-1.92a2.6,2.6,0,0,1,3.47,0c1.28,1.17,2.49,2.43,3.69,3.69a2.63,2.63,0,0,1,.06,3.77c-.76.86-1.58,1.67-2.4,2.46A4.32,4.32,0,0,1,33,41.36ZM13.7,21a8.31,8.31,0,0,0,.41,2.52A21.22,21.22,0,0,0,17,29.34a28.53,28.53,0,0,0,4.82,5.36,25.75,25.75,0,0,0,5.51,3.6,12.15,12.15,0,0,0,4.78,1.42A2.77,2.77,0,0,0,34.32,39c.74-.72,1.46-1.47,2.17-2.22a1.09,1.09,0,0,0,0-1.62c-.25-.27-.52-.52-.78-.78-.87-.88-1.74-1.76-2.62-2.63a1,1,0,0,0-1.54-.06,3.45,3.45,0,0,0-.28.26l-1.89,1.88a1.21,1.21,0,0,1-1.51.26,15.86,15.86,0,0,1-1.57-.85,21.63,21.63,0,0,1-5-4.58,13.63,13.63,0,0,1-2-3.11,1.31,1.31,0,0,1,.32-1.69l.2-.19c.63-.57,1.23-1.18,1.82-1.8a1,1,0,0,0,0-1.6Q20,18.56,18.31,16.9a1.11,1.11,0,0,0-1.74,0l-.2.19c-.56.56-1.1,1.12-1.67,1.67a3,3,0,0,0-1,2.29"/><path class="cls-2" d="M40.2,26c-.26.53-.63.72-1.09.56a.84.84,0,0,1-.57-.71,17,17,0,0,0-.43-1.74,13.27,13.27,0,0,0-2.69-4.77,13.84,13.84,0,0,0-3.8-3.05,13.56,13.56,0,0,0-3.92-1.38,2.5,2.5,0,0,1-.39-.11.81.81,0,0,1-.49-.94.78.78,0,0,1,.8-.63,5.32,5.32,0,0,1,1.31.25A15.29,15.29,0,0,1,40.11,25.21c0,.1.06.21.09.31Z"/><path class="cls-2" d="M27.51,18.3a7,7,0,0,1,2.15.63A9.19,9.19,0,0,1,34.91,25c.07.26.13.53.18.8a.84.84,0,0,1-.61,1,.82.82,0,0,1-1-.64,9.86,9.86,0,0,0-.67-2A7.5,7.5,0,0,0,27.46,20l-.24-.06a.82.82,0,0,1,.29-1.62"/></g></g></svg>